<svg width="198" height="197" viewBox="0 0 198 197" fill="none" xmlns="http://www.w3.org/2000/svg">
<g clip-path="url(#clip0_1_2)">
<path d="M44.9584 98.0751L46.3468 99.4614C45.8544 99.0299 45.3906 98.5668 44.9584 98.0751Z" fill="#2D9145"/>
<path d="M93.6728 146.701L95.0461 148.072C94.5478 147.658 94.0881 147.199 93.6728 146.701Z" fill="#2D9145"/>
<path d="M142.282 146.49C141.754 147.145 141.157 147.741 140.501 148.268L142.282 146.49Z" fill="#2D9145"/>
<path d="M19.8316 197V106.152L76.9065 49.1777C81.4339 45.4407 89.8548 42.9242 99.5433 42.9242C109.232 42.9242 117.894 45.5311 122.361 49.3736L122.271 49.1927L123.78 50.6996L171.045 97.9696L172.434 99.3559C176.297 103.876 178.908 112.36 178.908 122.17C178.908 131.979 176.388 140.252 172.615 144.772L170.864 146.52L120.399 196.94L19.8316 197Z" fill="url(#paint0_linear_1_2)"/>
<path d="M120.384 196.94L120.55 196.774L170.864 146.52L172.615 144.772C176.388 140.252 178.908 131.829 178.908 122.17C178.908 112.511 176.297 103.816 172.434 99.3559L197.727 124.596V175.151C197.729 178.013 197.166 180.847 196.07 183.491C194.974 186.136 193.366 188.539 191.34 190.562C189.313 192.586 186.906 194.191 184.258 195.285C181.61 196.379 178.771 196.942 175.905 196.94H120.384Z" fill="url(#paint1_linear_1_2)"/>
<path d="M76.9065 49.1777L93.9596 32.1502L94.1709 31.9393L99.6339 26.5899L106.938 19.3118H175.98C181.752 19.3318 187.281 21.6341 191.357 25.7149C195.432 29.7958 197.723 35.3227 197.727 41.0859V124.596L171.045 97.9696L123.78 50.7297L122.271 49.2229L122.437 49.4037C117.909 45.5612 109.413 42.9544 99.5886 42.9544C89.7642 42.9544 81.4339 45.4407 76.9065 49.1777Z" fill="url(#paint2_linear_1_2)"/>
<path d="M19.7712 106.212V41.0859C19.7692 38.222 20.3327 35.3857 21.4294 32.7394C22.5261 30.0931 24.1346 27.6887 26.1627 25.6636C28.1908 23.6385 30.5989 22.0325 33.2492 20.9374C35.8995 19.8424 38.74 19.2797 41.6082 19.2817H106.832L99.5282 26.5598L94.1709 31.9242L93.9596 32.1352L76.9065 49.1626L19.8316 106.152L19.7712 106.212Z" fill="#F47422"/>
<path d="M14.5346 111.938V40.9653C14.5426 33.8967 17.3573 27.1197 22.3617 22.12C27.366 17.1203 34.1517 14.306 41.2309 14.294H112.341L107.179 19.5228L106.908 19.2817H41.6082C38.74 19.2797 35.8995 19.8424 33.2492 20.9374C30.5989 22.0325 28.1908 23.6385 26.1627 25.6636C24.1346 27.6887 22.5261 30.0932 21.4294 32.7395C20.3327 35.3857 19.7692 38.222 19.7712 41.0859V106.212L20.0278 106.453L14.5346 111.938Z" fill="url(#paint3_linear_1_2)"/>
<path d="M0.590305 125.741V41.3571C0.610263 30.5103 4.93549 20.1137 12.6183 12.4453C20.3011 4.77688 30.7149 0.461978 41.578 0.446045H126.089L112.16 14.3543H41.2309C34.1491 14.3623 27.3595 17.1748 22.3519 22.175C17.3443 27.1751 14.5275 33.9544 14.5195 41.0256V111.848L0.590305 125.741Z" fill="url(#paint4_linear_1_2)"/>
<path d="M41.2762 6.05155H42.9815V9.06525H41.2762C39.8379 9.06906 38.4013 9.16469 36.9752 9.35156C36.9066 9.36444 36.8361 9.36322 36.768 9.34797C36.6999 9.33272 36.6356 9.30375 36.5791 9.26285C36.5226 9.22195 36.4751 9.16996 36.4394 9.11008C36.4037 9.05019 36.3806 8.98367 36.3715 8.91457L36.0697 7.00086C36.0481 6.85505 36.0851 6.70661 36.1728 6.58801C36.2605 6.4694 36.3916 6.3903 36.5376 6.36799C38.1082 6.15663 39.6913 6.05091 41.2762 6.05155Z" fill="white"/>
<path d="M51.9457 5.9762H46.2412C45.9411 5.9762 45.6979 6.21907 45.6979 6.51866V8.44744C45.6979 8.74703 45.9411 8.9899 46.2412 8.9899H51.9457C52.2457 8.9899 52.4889 8.74703 52.4889 8.44744V6.51866C52.4889 6.21907 52.2457 5.9762 51.9457 5.9762Z" fill="white"/>
<path d="M61.4531 5.9762H55.7487C55.4486 5.9762 55.2054 6.21907 55.2054 6.51866V8.44744C55.2054 8.74703 55.4486 8.9899 55.7487 8.9899H61.4531C61.7532 8.9899 61.9964 8.74703 61.9964 8.44744V6.51866C61.9964 6.21907 61.7532 5.9762 61.4531 5.9762Z" fill="white"/>
<path d="M70.9606 5.9762H65.2561C64.9561 5.9762 64.7128 6.21907 64.7128 6.51866V8.44744C64.7128 8.74703 64.9561 8.9899 65.2561 8.9899H70.9606C71.2606 8.9899 71.5039 8.74703 71.5039 8.44744V6.51866C71.5039 6.21907 71.2606 5.9762 70.9606 5.9762Z" fill="white"/>
<path d="M80.4681 5.9762H74.7636C74.4635 5.9762 74.2203 6.21907 74.2203 6.51866V8.44744C74.2203 8.74703 74.4635 8.9899 74.7636 8.9899H80.4681C80.7681 8.9899 81.0113 8.74703 81.0113 8.44744V6.51866C81.0113 6.21907 80.7681 5.9762 80.4681 5.9762Z" fill="white"/>
<path d="M89.9755 5.9762H84.271C83.971 5.9762 83.7277 6.21907 83.7277 6.51866V8.44744C83.7277 8.74703 83.971 8.9899 84.271 8.9899H89.9755C90.2755 8.9899 90.5188 8.74703 90.5188 8.44744V6.51866C90.5188 6.21907 90.2755 5.9762 89.9755 5.9762Z" fill="white"/>
<path opacity="0.7" d="M99.483 5.9762H93.7785C93.4784 5.9762 93.2352 6.21907 93.2352 6.51866V8.44744C93.2352 8.74703 93.4784 8.9899 93.7785 8.9899H99.483C99.783 8.9899 100.026 8.74703 100.026 8.44744V6.51866C100.026 6.21907 99.783 5.9762 99.483 5.9762Z" fill="white"/>
<path d="M33.3382 7.46798L33.7759 9.33648C33.808 9.47424 33.7849 9.61908 33.7116 9.74011C33.6383 9.86115 33.5206 9.94882 33.3835 9.98443C31.6321 10.4292 29.9209 11.0189 28.2676 11.7474C28.2043 11.7778 28.1355 11.7953 28.0654 11.7988C27.9953 11.8024 27.9251 11.7919 27.8591 11.7681C27.793 11.7442 27.7324 11.7075 27.6807 11.6599C27.6291 11.6124 27.5875 11.5551 27.5583 11.4913L26.7434 9.74333C26.7025 9.6164 26.7073 9.47922 26.7569 9.35543C26.8064 9.23165 26.8977 9.12902 27.015 9.06524C28.8382 8.25589 30.7262 7.60063 32.6591 7.10634C32.7971 7.0718 32.943 7.08968 33.0684 7.15651C33.1939 7.22334 33.2901 7.33435 33.3382 7.46798Z" fill="white"/>
<path d="M24.2684 11.0242L25.2191 12.6968C25.2542 12.757 25.2769 12.8236 25.2859 12.8927C25.295 12.9618 25.2903 13.032 25.2721 13.0993C25.2538 13.1665 25.2224 13.2295 25.1797 13.2845C25.1369 13.3396 25.0836 13.3857 25.023 13.4201C23.4643 14.35 21.9899 15.4138 20.6163 16.5995C20.5151 16.6971 20.3798 16.7517 20.2391 16.7517C20.0983 16.7517 19.963 16.6971 19.8618 16.5995L18.5941 15.0927C18.4909 14.9883 18.433 14.8476 18.433 14.7009C18.433 14.5542 18.4909 14.4135 18.5941 14.3091C20.1154 13.0196 21.7464 11.865 23.4686 10.8584C23.5303 10.8119 23.6013 10.7791 23.6767 10.7622C23.7522 10.7453 23.8304 10.7447 23.9061 10.7604C23.9818 10.7761 24.0533 10.8077 24.1158 10.8532C24.1783 10.8987 24.2303 10.957 24.2684 11.0242Z" fill="white"/>
<path d="M16.6323 16.9762L18.0206 18.3173C18.1184 18.4185 18.173 18.5535 18.173 18.6941C18.173 18.8346 18.1184 18.9696 18.0206 19.0708C16.7859 20.3928 15.6557 21.8085 14.6402 23.305C14.6047 23.3647 14.5575 23.4166 14.5014 23.4574C14.4452 23.4983 14.3813 23.5274 14.3136 23.5429C14.2459 23.5584 14.1757 23.56 14.1073 23.5476C14.0389 23.5352 13.9738 23.5091 13.9158 23.4708L12.286 22.4311C12.2235 22.3925 12.1692 22.3421 12.1263 22.2826C12.0833 22.2231 12.0526 22.1557 12.0358 22.0843C12.0189 22.0129 12.0164 21.9389 12.0282 21.8666C12.0401 21.7942 12.0662 21.7249 12.1049 21.6626C13.2101 20.0051 14.4519 18.4426 15.8173 16.9913C15.8685 16.9347 15.9308 16.8891 16.0003 16.8575C16.0698 16.8259 16.1451 16.8088 16.2215 16.8074C16.2979 16.806 16.3738 16.8203 16.4444 16.8493C16.5151 16.8783 16.579 16.9215 16.6323 16.9762Z" fill="white"/>
<path d="M10.8221 24.8269L12.5124 25.7311C12.5756 25.7628 12.6318 25.807 12.6776 25.8609C12.7234 25.9148 12.7579 25.9773 12.779 26.0448C12.8001 26.1123 12.8074 26.1833 12.8005 26.2537C12.7936 26.324 12.7726 26.3923 12.7387 26.4543C11.9209 28.0641 11.2345 29.7371 10.6863 31.4571C10.6444 31.5917 10.5516 31.7047 10.4277 31.7722C10.3037 31.8397 10.1584 31.8564 10.0223 31.8187L8.18118 31.2763C8.1108 31.2555 8.04521 31.2211 7.98816 31.1751C7.9311 31.129 7.8837 31.0722 7.84866 31.0078C7.81362 30.9434 7.79163 30.8728 7.78395 30.7999C7.77627 30.727 7.78305 30.6534 7.8039 30.5831C8.39753 28.6829 9.15492 26.8377 10.0676 25.068C10.1381 24.9386 10.2559 24.8414 10.3965 24.7965C10.537 24.7516 10.6895 24.7625 10.8221 24.8269Z" fill="white"/>
<path d="M7.57753 33.9735L9.46393 34.3653C9.5326 34.3796 9.59774 34.4074 9.65554 34.4471C9.71333 34.4867 9.76264 34.5375 9.80057 34.5964C9.8385 34.6554 9.8643 34.7212 9.87646 34.7902C9.88862 34.8592 9.8869 34.9299 9.8714 34.9982C9.5414 36.7735 9.35468 38.5725 9.31302 40.3777C9.31302 40.5175 9.25737 40.6517 9.15832 40.7506C9.05926 40.8495 8.92491 40.905 8.78483 40.905H6.7777C6.63081 40.9012 6.49099 40.8413 6.38709 40.7375C6.2832 40.6338 6.22314 40.4942 6.21932 40.3475C6.25786 38.3547 6.46484 36.3686 6.83806 34.4105C6.85337 34.3308 6.88546 34.2553 6.9322 34.189C6.97894 34.1226 7.03926 34.067 7.10918 34.0256C7.17909 33.9843 7.257 33.9583 7.33775 33.9493C7.41849 33.9403 7.50022 33.9486 7.57753 33.9735Z" fill="white"/>
<path d="M8.69428 43.6174H6.76261C6.46256 43.6174 6.21932 43.8602 6.21932 44.1598V49.8557C6.21932 50.1553 6.46256 50.3982 6.76261 50.3982H8.69428C8.99433 50.3982 9.23756 50.1553 9.23756 49.8557V44.1598C9.23756 43.8602 8.99433 43.6174 8.69428 43.6174Z" fill="white"/>
<path d="M8.69428 53.1106H6.76261C6.46256 53.1106 6.21932 53.3534 6.21932 53.653V59.3489C6.21932 59.6485 6.46256 59.8914 6.76261 59.8914H8.69428C8.99433 59.8914 9.23756 59.6485 9.23756 59.3489V53.653C9.23756 53.3534 8.99433 53.1106 8.69428 53.1106Z" fill="white"/>
<path d="M8.69428 62.6038H6.76261C6.46256 62.6038 6.21932 62.8466 6.21932 63.1462V68.8421C6.21932 69.1417 6.46256 69.3846 6.76261 69.3846H8.69428C8.99433 69.3846 9.23756 69.1417 9.23756 68.8421V63.1462C9.23756 62.8466 8.99433 62.6038 8.69428 62.6038Z" fill="white"/>
<path d="M8.69428 72.0969H6.76261C6.46256 72.0969 6.21932 72.3398 6.21932 72.6394V78.3353C6.21932 78.6349 6.46256 78.8778 6.76261 78.8778H8.69428C8.99433 78.8778 9.23756 78.6349 9.23756 78.3353V72.6394C9.23756 72.3398 8.99433 72.0969 8.69428 72.0969Z" fill="white"/>
<path d="M8.69428 81.5901H6.76261C6.46256 81.5901 6.21932 81.833 6.21932 82.1326V87.8285C6.21932 88.1281 6.46256 88.3709 6.76261 88.3709H8.69428C8.99433 88.3709 9.23756 88.1281 9.23756 87.8285V82.1326C9.23756 81.833 8.99433 81.5901 8.69428 81.5901Z" fill="white"/>
<path opacity="0.7" d="M8.69428 91.0833H6.76261C6.46256 91.0833 6.21932 91.3261 6.21932 91.6257V97.3216C6.21932 97.6212 6.46256 97.8641 6.76261 97.8641H8.69428C8.99433 97.8641 9.23756 97.6212 9.23756 97.3216V91.6257C9.23756 91.3261 8.99433 91.0833 8.69428 91.0833Z" fill="white"/>
<path opacity="0.5" d="M8.69428 100.576H6.76261C6.46256 100.576 6.21932 100.819 6.21932 101.119V106.815C6.21932 107.114 6.46256 107.357 6.76261 107.357H8.69428C8.99433 107.357 9.23756 107.114 9.23756 106.815V101.119C9.23756 100.819 8.99433 100.576 8.69428 100.576Z" fill="white"/>
<path d="M61.3475 106.197C62.6066 102.831 64.2579 99.6244 66.2672 96.6436C66.3096 96.581 66.364 96.5275 66.4273 96.486C66.4905 96.4445 66.5614 96.416 66.6357 96.402C66.7101 96.3879 66.7865 96.3888 66.8605 96.4044C66.9345 96.42 67.0047 96.45 67.0671 96.4929L72.1981 100.019C72.3193 100.101 72.4032 100.228 72.4314 100.372C72.4596 100.516 72.43 100.665 72.349 100.787C70.6891 103.264 69.3218 105.923 68.2744 108.713C68.2233 108.851 68.1204 108.962 67.9877 109.024C67.855 109.086 67.7032 109.094 67.5651 109.045L61.6946 107.011C61.6133 106.987 61.5384 106.945 61.4751 106.889C61.4118 106.833 61.3618 106.763 61.3286 106.686C61.2954 106.608 61.2799 106.524 61.2832 106.439C61.2864 106.355 61.3084 106.272 61.3475 106.197Z" fill="#6D6F70"/>
<path d="M70.4324 152.593L75.1107 148.464C75.1611 148.414 75.2211 148.374 75.2872 148.346C75.3532 148.319 75.424 148.305 75.4955 148.305C75.567 148.305 75.6378 148.319 75.7038 148.346C75.7699 148.374 75.8298 148.414 75.8803 148.464C77.8863 150.669 80.1396 152.636 82.5959 154.326C82.7172 154.408 82.801 154.535 82.8292 154.679C82.8575 154.823 82.8279 154.972 82.7468 155.094L79.2607 160.263C79.2195 160.327 79.166 160.382 79.1033 160.425C79.0406 160.467 78.97 160.497 78.8956 160.513C78.8211 160.528 78.7444 160.529 78.6698 160.514C78.5952 160.5 78.5242 160.471 78.4609 160.429C75.5056 158.38 72.792 156.004 70.372 153.346C70.2887 153.235 70.2489 153.097 70.26 152.958C70.2711 152.82 70.3324 152.69 70.4324 152.593Z" fill="#6D6F70"/>
<path d="M68.9836 92.9819C71.2721 90.2093 73.8751 87.7113 76.7405 85.538C76.8003 85.4917 76.8688 85.458 76.942 85.4389C77.0152 85.4199 77.0915 85.4158 77.1663 85.4271C77.2411 85.4384 77.3128 85.4647 77.3771 85.5045C77.4414 85.5443 77.497 85.5967 77.5403 85.6586L81.2528 90.6613C81.3385 90.7781 81.3755 90.9235 81.3558 91.0669C81.336 91.2104 81.2612 91.3405 81.1471 91.4298C78.7779 93.2408 76.6213 95.3133 74.7183 97.6079C74.624 97.7206 74.49 97.7927 74.344 97.8096C74.198 97.8264 74.051 97.7866 73.9335 97.6983L69.0742 93.7956C68.9561 93.6984 68.8806 93.559 68.8637 93.4071C68.8467 93.2552 68.8898 93.1026 68.9836 92.9819Z" fill="#6D6F70"/>
<path d="M82.1281 162.101L85.2218 156.737C85.2564 156.672 85.3036 156.616 85.3607 156.57C85.4178 156.524 85.4836 156.491 85.554 156.471C85.6245 156.451 85.6982 156.446 85.7708 156.455C85.8434 156.465 85.9133 156.489 85.9763 156.526C88.5853 157.961 91.3498 159.093 94.2161 159.901C94.3577 159.94 94.4782 160.033 94.5516 160.16C94.6251 160.287 94.6455 160.438 94.6085 160.579L93.0088 166.607C92.9898 166.68 92.9561 166.749 92.9096 166.809C92.8631 166.868 92.8049 166.918 92.7386 166.955C92.6722 166.992 92.599 167.014 92.5236 167.022C92.4481 167.029 92.3719 167.021 92.2995 166.999C88.8317 166.036 85.4889 164.67 82.3394 162.93C82.2692 162.891 82.2078 162.838 82.1588 162.775C82.1099 162.712 82.0744 162.639 82.0546 162.561C82.0348 162.484 82.0311 162.403 82.0438 162.324C82.0564 162.245 82.0851 162.169 82.1281 162.101Z" fill="#6D6F70"/>
<path d="M80.4982 82.9011C83.5656 81.0199 86.8424 79.5027 90.2622 78.3805C90.3346 78.3572 90.4108 78.3485 90.4865 78.3548C90.5622 78.3612 90.6359 78.3825 90.7033 78.4176C90.7707 78.4526 90.8305 78.5007 90.8791 78.559C90.9278 78.6173 90.9643 78.6847 90.9866 78.7572L92.8579 84.6942C92.8812 84.7634 92.8902 84.8366 92.8845 84.9094C92.8787 84.9822 92.8584 85.053 92.8245 85.1178C92.7907 85.1825 92.7442 85.2397 92.6877 85.286C92.6312 85.3324 92.5659 85.3668 92.4957 85.3874C89.667 86.3189 86.9572 87.5782 84.4219 89.1394C84.2949 89.2137 84.1442 89.2363 84.0009 89.2026C83.8577 89.169 83.7328 89.0816 83.6523 88.9586L80.3171 83.76C80.2701 83.6925 80.2374 83.6161 80.221 83.5356C80.2046 83.455 80.2049 83.3719 80.2219 83.2915C80.2388 83.211 80.2721 83.1349 80.3196 83.0677C80.3672 83.0006 80.4279 82.9439 80.4982 82.9011Z" fill="#6D6F70"/>
<path d="M96.2987 167.285L97.4457 161.152C97.4582 161.08 97.4852 161.011 97.525 160.95C97.5647 160.889 97.6164 160.836 97.677 160.796C97.7376 160.755 97.8058 160.727 97.8776 160.713C97.9493 160.699 98.0231 160.7 98.0946 160.715C101.034 161.22 104.021 161.387 106.998 161.212C107.144 161.204 107.287 161.253 107.397 161.349C107.507 161.444 107.575 161.579 107.587 161.725L108.025 167.948C108.031 168.022 108.022 168.097 107.998 168.168C107.975 168.239 107.938 168.305 107.888 168.361C107.839 168.417 107.779 168.463 107.712 168.495C107.644 168.528 107.571 168.547 107.496 168.551C103.903 168.765 100.298 168.563 96.7514 167.948C96.604 167.919 96.474 167.833 96.3893 167.709C96.3046 167.585 96.2721 167.433 96.2987 167.285Z" fill="#6D6F70"/>
<path d="M138.433 165.477L114.046 163.97L127.628 143.642L130.797 150.001C136.502 144.644 140.406 137.655 141.975 129.994C143.543 122.332 142.699 114.374 139.558 107.211C136.416 100.048 131.132 94.0313 124.43 89.9863C117.728 85.9413 109.936 84.0664 102.124 84.6189C100.877 84.7088 99.6457 84.3005 98.7004 83.4838C97.7552 82.6671 97.1735 81.509 97.0835 80.2641C96.9934 79.0192 97.4023 77.7896 98.2202 76.8457C99.0381 75.9019 100.198 75.3211 101.445 75.2312C111.441 74.5209 121.405 76.9942 129.905 82.2956C138.404 87.597 145.001 95.4533 148.746 104.735C152.492 114.016 153.192 124.244 150.748 133.949C148.304 143.653 142.841 152.333 135.143 158.741L138.433 165.477Z" fill="#F47422"/>
<path fill-rule="evenodd" clip-rule="evenodd" d="M116.732 139.966V142.798C116.732 142.92 116.708 143.041 116.661 143.154C116.614 143.266 116.544 143.368 116.457 143.454C116.37 143.539 116.267 143.607 116.153 143.652C116.04 143.697 115.919 143.72 115.797 143.718H112.627C112.731 143.304 112.782 142.879 112.778 142.452C112.778 140.853 112.142 139.32 111.01 138.19C109.878 137.06 108.343 136.424 106.742 136.424C105.141 136.424 103.605 137.06 102.473 138.19C101.341 139.32 100.705 140.853 100.705 142.452C100.702 142.879 100.752 143.304 100.856 143.718H89.568V122.501C89.568 122.161 89.7032 121.836 89.9438 121.595C90.1843 121.355 90.5106 121.22 90.8508 121.22H101.143C101.988 121.22 102.486 121.401 102.788 122.29L104.991 128.966C107.511 129.538 115.299 131.603 115.299 134.466V138.986H115.797C115.919 138.984 116.04 139.006 116.153 139.052C116.267 139.097 116.37 139.164 116.457 139.25C116.544 139.336 116.614 139.438 116.661 139.55C116.708 139.663 116.732 139.783 116.732 139.905" fill="#F37423"/>
<path fill-rule="evenodd" clip-rule="evenodd" d="M110.65 142.437C110.659 142.716 110.628 142.995 110.56 143.266C110.567 143.371 110.567 143.477 110.56 143.582C110.317 144.392 109.818 145.103 109.138 145.608C108.459 146.112 107.634 146.385 106.787 146.385C105.94 146.385 105.115 146.112 104.436 145.608C103.756 145.103 103.258 144.392 103.014 143.582C103.007 143.477 103.007 143.371 103.014 143.266C102.946 142.995 102.915 142.716 102.924 142.437C102.924 141.394 103.339 140.393 104.077 139.656C104.816 138.918 105.818 138.504 106.863 138.504C107.907 138.504 108.909 138.918 109.648 139.656C110.386 140.393 110.801 141.394 110.801 142.437" fill="#F37423"/>
<path fill-rule="evenodd" clip-rule="evenodd" d="M82.8675 142.437C82.8689 142.716 82.8386 142.994 82.777 143.266L82.6865 143.582C82.4431 144.392 81.9446 145.103 81.265 145.608C80.5854 146.112 79.7608 146.385 78.9137 146.385C78.0665 146.385 77.2419 146.112 76.5623 145.608C75.8827 145.103 75.3842 144.392 75.1409 143.582C75.1086 143.478 75.0834 143.373 75.0654 143.266C74.9969 142.995 74.9664 142.716 74.9748 142.437C75.037 141.434 75.4798 140.492 76.2131 139.804C76.9463 139.116 77.9148 138.733 78.9212 138.733C79.9276 138.733 80.8961 139.116 81.6293 139.804C82.3626 140.492 82.8054 141.434 82.8675 142.437Z" fill="#F37423"/>
<path fill-rule="evenodd" clip-rule="evenodd" d="M47.0259 142.437C47.0273 142.716 46.9969 142.994 46.9354 143.266C46.9423 143.371 46.9423 143.477 46.9354 143.582C46.692 144.392 46.1936 145.103 45.5139 145.608C44.8343 146.112 44.0097 146.385 43.1626 146.385C42.3154 146.385 41.4909 146.112 40.8112 145.608C40.1316 145.103 39.6331 144.392 39.3898 143.582C39.3527 143.479 39.3224 143.373 39.2992 143.266C39.2377 142.994 39.2073 142.716 39.2087 142.437C39.2708 141.434 39.7137 140.492 40.4469 139.804C41.1802 139.116 42.1487 138.733 43.155 138.733C44.1614 138.733 45.1299 139.116 45.8632 139.804C46.5964 140.492 47.0392 141.434 47.1014 142.437" fill="url(#paint5_linear_1_2)"/>
<path fill-rule="evenodd" clip-rule="evenodd" d="M86.1876 112.842H37.6392C36.9868 112.842 36.3611 113.101 35.8998 113.562C35.4385 114.022 35.1793 114.647 35.1793 115.298V143.718H37.1261C37.0264 143.298 36.9808 142.868 36.9903 142.437C36.9903 140.824 37.6318 139.278 38.7738 138.138C39.9158 136.997 41.4646 136.357 43.0796 136.357C44.6946 136.357 46.2434 136.997 47.3854 138.138C48.5273 139.278 49.1689 140.824 49.1689 142.437C49.1784 142.868 49.1328 143.298 49.0331 143.718H72.9677C72.8629 143.299 72.8122 142.868 72.8168 142.437C72.8168 140.822 73.4591 139.274 74.6025 138.132C75.7459 136.991 77.2967 136.349 78.9136 136.349C80.5306 136.349 82.0814 136.991 83.2248 138.132C84.3682 139.274 85.0105 140.822 85.0105 142.437C85.0125 142.867 84.9669 143.297 84.8747 143.718H87.1233V113.776C87.1233 113.529 87.0247 113.291 86.8492 113.116C86.6737 112.941 86.4358 112.842 86.1876 112.842Z" fill="url(#paint6_linear_1_2)"/>
<path fill-rule="evenodd" clip-rule="evenodd" d="M117.577 120.392V124.008H114.091V120.663C111.994 120.596 109.936 120.083 108.055 119.156L109.111 115.042C110.903 116.02 112.91 116.537 114.951 116.549C117.004 116.549 118.362 115.735 118.362 114.349C118.362 112.963 117.23 112.179 114.604 111.335C110.832 110.07 108.266 108.322 108.266 104.901C108.266 101.782 110.439 99.3559 114.212 98.6477V95.3025H117.743V98.4066C119.524 98.4315 121.281 98.8213 122.904 99.5518L121.833 103.53C120.271 102.721 118.537 102.302 116.777 102.309C114.469 102.309 113.759 103.319 113.759 104.313C113.759 105.308 114.982 106.212 118.015 107.327C122.21 108.834 123.87 110.733 123.87 113.942C123.87 117.152 121.637 119.713 117.577 120.392Z" fill="#6D6F70"/>
</g>
<defs>
<linearGradient id="paint0_linear_1_2" x1="147.413" y1="74.3723" x2="22.4042" y2="199.554" gradientUnits="userSpaceOnUse">
<stop stop-color="white"/>
<stop offset="0.32" stop-color="#FCFCFC"/>
<stop offset="0.58" stop-color="#F2F2F2"/>
<stop offset="0.82" stop-color="#E0E2E2"/>
<stop offset="1" stop-color="#CED0D0"/>
</linearGradient>
<linearGradient id="paint1_linear_1_2" x1="158.429" y1="189.737" x2="185.007" y2="103.824" gradientUnits="userSpaceOnUse">
<stop offset="0.09" stop-color="#EFAA21"/>
<stop offset="0.15" stop-color="#F0A321"/>
<stop offset="0.38" stop-color="#F28922"/>
<stop offset="0.58" stop-color="#F37922"/>
<stop offset="0.75" stop-color="#F47422"/>
</linearGradient>
<linearGradient id="paint2_linear_1_2" x1="123.025" y1="26.3488" x2="221.89" y2="125.362" gradientUnits="userSpaceOnUse">
<stop stop-color="#EFAA21"/>
<stop offset="0.42" stop-color="#EFA821"/>
<stop offset="0.63" stop-color="#F0A021"/>
<stop offset="0.79" stop-color="#F19321"/>
<stop offset="0.93" stop-color="#F38022"/>
<stop offset="1" stop-color="#F47422"/>
</linearGradient>
<linearGradient id="paint3_linear_1_2" x1="90.9262" y1="-5.32519" x2="-2.96565" y2="88.7231" gradientUnits="userSpaceOnUse">
<stop stop-color="white" stop-opacity="0"/>
<stop offset="0.04" stop-color="#FDF5E5" stop-opacity="0.12"/>
<stop offset="0.17" stop-color="#F8DBA0" stop-opacity="0.43"/>
<stop offset="0.28" stop-color="#F4C66A" stop-opacity="0.67"/>
<stop offset="0.37" stop-color="#F1B742" stop-opacity="0.85"/>
<stop offset="0.45" stop-color="#F0AD2A" stop-opacity="0.96"/>
<stop offset="0.49" stop-color="#EFAA21"/>
<stop offset="1" stop-color="white" stop-opacity="0"/>
</linearGradient>
<linearGradient id="paint4_linear_1_2" x1="-19.6017" y1="105.7" x2="89.5514" y2="-16.5184" gradientUnits="userSpaceOnUse">
<stop stop-color="white" stop-opacity="0"/>
<stop offset="0.03" stop-color="#FEFBF4" stop-opacity="0.05"/>
<stop offset="0.09" stop-color="#FCF0D8" stop-opacity="0.18"/>
<stop offset="0.16" stop-color="#F9DEA9" stop-opacity="0.39"/>
<stop offset="0.25" stop-color="#F4C669" stop-opacity="0.67"/>
<stop offset="0.34" stop-color="#EFAA21"/>
<stop offset="0.5" stop-color="#F28D22"/>
<stop offset="0.61" stop-color="#F47422"/>
<stop offset="0.65" stop-color="#F47A2B" stop-opacity="0.96"/>
<stop offset="0.71" stop-color="#F68943" stop-opacity="0.85"/>
<stop offset="0.78" stop-color="#F8A26B" stop-opacity="0.67"/>
<stop offset="0.87" stop-color="#FAC5A2" stop-opacity="0.42"/>
<stop offset="0.97" stop-color="#FEF0E7" stop-opacity="0.11"/>
<stop offset="1" stop-color="white" stop-opacity="0"/>
</linearGradient>
<linearGradient id="paint5_linear_1_2" x1="39.1332" y1="142.437" x2="47.0259" y2="142.437" gradientUnits="userSpaceOnUse">
<stop offset="0.09" stop-color="#EFAA21"/>
<stop offset="0.15" stop-color="#F0A321"/>
<stop offset="0.38" stop-color="#F28922"/>
<stop offset="0.58" stop-color="#F37922"/>
<stop offset="0.75" stop-color="#F47422"/>
</linearGradient>
<linearGradient id="paint6_linear_1_2" x1="35.1793" y1="128.287" x2="87.1233" y2="128.287" gradientUnits="userSpaceOnUse">
<stop offset="0.09" stop-color="#EFAA21"/>
<stop offset="0.15" stop-color="#F0A321"/>
<stop offset="0.38" stop-color="#F28922"/>
<stop offset="0.58" stop-color="#F37922"/>
<stop offset="0.75" stop-color="#F47422"/>
</linearGradient>
<clipPath id="clip0_1_2">
<rect width="198" height="197" fill="white"/>
</clipPath>
</defs>
</svg>
